<svg width="28px" height="29px" viewBox="0 0 28 29" version="1.1" xmlns="http://www.w3.org/2000/svg" xmlns:xlink="http://www.w3.org/1999/xlink">
    <!-- Generator: Sketch 41.2 (35397) - http://www.bohemiancoding.com/sketch -->
    <title>Fill 25 Copy 4</title>
    <desc>Created with Sketch.</desc>
    <defs></defs>
    <g id="Landing-Pages" stroke="none" stroke-width="1" fill="none" fill-rule="evenodd">
        <g id="Brand-Mobile" transform="translate(-303.000000, -2028.000000)" fill="#FFFFFF">
            <path d="M322.25,2043.096 L317.875,2043.096 L317.875,2047.471 C317.875,2047.95225 317.483875,2048.346 317,2048.346 C316.516125,2048.346 316.125,2047.95225 316.125,2047.471 L316.125,2043.096 L311.75,2043.096 C311.266125,2043.096 310.875,2042.70225 310.875,2042.221 C310.875,2041.73975 311.266125,2041.346 311.75,2041.346 L316.125,2041.346 L316.125,2036.971 C316.125,2036.48975 316.516125,2036.096 317,2036.096 C317.483875,2036.096 317.875,2036.48975 317.875,2036.971 L317.875,2041.346 L322.25,2041.346 C322.733875,2041.346 323.125,2041.73975 323.125,2042.221 C323.125,2042.70225 322.733875,2043.096 322.25,2043.096 L322.25,2043.096 Z M317,2028.221 C309.267625,2028.221 303,2034.486 303,2042.221 C303,2049.956 309.267625,2056.221 317,2056.221 C324.732375,2056.221 331,2049.956 331,2042.221 C331,2034.486 324.732375,2028.221 317,2028.221 L317,2028.221 Z" id="Fill-25-Copy-4"></path>
        </g>
    </g>
</svg>
