<?xml version="1.0" encoding="iso-8859-1"?>
<!-- Generator: Adobe Illustrator 19.0.0, SVG Export Plug-In . SVG Version: 6.00 Build 0)  -->
<svg version="1.1" id="Layer_1" xmlns="http://www.w3.org/2000/svg" xmlns:xlink="http://www.w3.org/1999/xlink" x="0px" y="0px"
	 viewBox="0 0 512 512" style="enable-background:new 0 0 512 512;" xml:space="preserve">
<g>
	<g>
		<path d="M327.584,164.119h-209.67c-4.86,0-8.801,3.939-8.801,8.801c0,4.861,3.94,8.801,8.801,8.801h209.67
			c4.86,0,8.801-3.939,8.801-8.801C336.385,168.059,332.444,164.119,327.584,164.119z"/>
	</g>
</g>
<g>
	<g>
		<path d="M363.817,206.327h-209.67c-4.86,0-8.801,3.939-8.801,8.801s3.94,8.801,8.801,8.801h209.67c4.86,0,8.801-3.939,8.801-8.801
			S368.677,206.327,363.817,206.327z"/>
	</g>
</g>
<g>
	<g>
		<path d="M482.376,355.074L362.667,133.321c30.483-6.448,53.431-33.556,53.431-65.929C416.098,30.233,385.866,0,348.706,0H103.833
			C74.485,0,47.909,15.001,32.744,40.128c-15.165,25.128-16.052,55.632-2.375,81.598l109.193,207.302h-31.278
			c-37.16,0-67.393,30.233-67.393,67.393s30.232,67.393,67.393,67.393h234.187v39.386c0,3.424,1.985,6.537,5.091,7.98
			c1.185,0.552,2.45,0.82,3.708,0.82c2.038,0,4.057-0.709,5.675-2.073l27.494-23.187l27.495,23.187
			c2.618,2.207,6.279,2.698,9.383,1.252c3.105-1.442,5.091-4.556,5.091-7.98v-39.917c23.048-2.734,43.324-16.068,55.061-36.539
			C494.239,404.471,494.58,377.677,482.376,355.074z M348.706,17.601c27.456,0,49.791,22.336,49.791,49.791
			c0,27.447-22.324,49.779-49.769,49.79c-0.009,0-0.019,0-0.027,0H149.203c13.525-12.334,22.023-30.089,22.023-49.791
			c0-19.703-8.498-37.457-22.023-49.79H348.706z M108.284,446.213c-27.454,0-49.791-22.336-49.791-49.792
			c0-27.456,22.336-49.791,49.791-49.791h40.552l8.546,16.225c0.088,0.196,0.183,0.388,0.285,0.578
			c9.479,17.56,9.035,38.273-1.188,55.411C146.256,435.982,128.239,446.213,108.284,446.213z M408.807,484.265L408.807,484.265
			L390.112,468.5c-1.638-1.382-3.656-2.073-5.673-2.073s-4.034,0.691-5.673,2.073l-18.694,15.765c0,0,0-29.23,0-29.275v-45.456
			c0.106,0.054,0.215,0.1,0.32,0.153c0.769,0.388,1.547,0.759,2.336,1.112c0.092,0.041,0.183,0.084,0.275,0.124
			c13.515,5.936,29.355,5.943,42.867,0.001c0.097-0.042,0.192-0.088,0.29-0.131c0.783-0.35,1.556-0.717,2.319-1.103
			c0.109-0.055,0.221-0.101,0.329-0.156V484.265z M405.988,390.458c-5.631,4.306-12.538,7.004-19.993,7.328
			c-20.099,0.875-37.397-15.721-37.397-35.802c0-19.763,16.078-35.84,35.84-35.84s35.84,16.077,35.84,35.84
			C420.279,373.43,414.637,383.843,405.988,390.458z M466.199,417.989c-8.578,14.96-23.136,24.91-39.792,27.527V395.01
			c7.174-9.097,11.472-20.565,11.472-33.026c0-29.467-23.974-53.441-53.441-53.441s-53.441,23.974-53.441,53.441
			c0,12.459,4.298,23.928,11.472,33.026v51.202H156.197c5.979-5.137,11.191-11.299,15.398-18.351
			c13.328-22.339,14.004-49.308,1.845-72.26c-0.069-0.151-0.143-0.302-0.221-0.449l-11.316-21.484
			c-0.009-0.018-0.019-0.036-0.028-0.053L45.943,113.524c-10.778-20.462-10.078-44.5,1.872-64.302
			c11.95-19.8,32.892-31.621,56.019-31.621c27.454,0,49.791,22.336,49.791,49.791s-22.336,49.791-49.791,49.791
			c-4.86,0-8.801,3.939-8.801,8.801s3.94,8.801,8.801,8.801h239.623l123.432,228.649
			C476.177,380.642,475.92,401.037,466.199,417.989z"/>
	</g>
</g>
<g>
</g>
<g>
</g>
<g>
</g>
<g>
</g>
<g>
</g>
<g>
</g>
<g>
</g>
<g>
</g>
<g>
</g>
<g>
</g>
<g>
</g>
<g>
</g>
<g>
</g>
<g>
</g>
<g>
</g>
</svg>
