<svg xmlns="http://www.w3.org/2000/svg" width="11" height="17" viewBox="0 0 11 17">
  <polygon fill="#A81D32" fill-rule="evenodd" points="1.191 1.639 5.095 1.33 8.116 .981 9.123 4.146 10.13 7.783 10.191 7.886 10.253 8.112 10.397 8.338 10.561 8.749 10.828 8.995 10.87 9.077 10.972 9.324 10.931 9.653 11.136 9.755 11.178 9.961 10.972 10.125 10.849 10.331 10.87 10.742 10.787 10.968 10.725 11.379 10.87 11.79 11.034 12.016 11.136 12.324 11.075 12.53 11.095 12.735 11.034 13.208 11.095 13.434 11.26 13.639 11.445 13.968 11.445 14.071 6.986 14.605 4.335 14.872 4.129 15.037 4.068 15.304 4.396 15.735 4.602 15.838 4.807 16.044 4.705 16.352 4.787 16.557 4.725 16.948 4.52 17.133 4.294 17.092 4.335 17.153 4.273 17.359 4.047 17.441 3.204 17.585 3.348 17.482 3.554 17.503 3.78 17.42 3.821 17.215 3.677 16.989 3.615 17.03 3.389 16.906 3.287 16.701 3.369 16.495 3.328 16.29 3.204 16.084 3.102 16.064 2.978 15.9 2.999 16.002 2.917 16.187 2.876 16.413 2.835 17.174 2.629 17.174 2.218 17.092 2.013 17.133 1.992 17.03 1.334 12.078 1.519 1.988 1.314 1.865 1.211 1.721" transform="rotate(5 17.27 -2.669)"/>
</svg>
