<svg xmlns="http://www.w3.org/2000/svg" width="300" height="157" viewBox="0 0 300 157">
  <g fill="none" fill-rule="evenodd">
    <rect width="300" height="157" fill="#D9E1E7"/>
    <path fill="#000" fill-rule="nonzero" d="M174,108 L174,112 L170,112 L170,108 L126,108 C123.790861,108 122,109.790861 122,112 C122,114.209139 123.790861,116 126,116 L178,116 L178,108 L174,108 Z M182,36 L182,120 L126,120 C121.581722,120 118,116.418278 118,112 L118,44 C118,39.581722 121.581722,36 126,36 L182,36 Z M178,104 L178,40 L126,40 C123.790861,40 122,41.790861 122,44 L122,105.070258 C123.176693,104.389577 124.542851,104 126,104 L178,104 Z M138,58 L162,58 L162,62 L138,62 L138,58 Z M144,66 L156,66 L156,70 L144,70 L144,66 Z" opacity=".2"/>
  </g>
</svg>
