<?xml version="1.0" encoding="UTF-8"?>
<svg width="25px" height="25px" viewBox="0 0 25 25" version="1.1" xmlns="http://www.w3.org/2000/svg" xmlns:xlink="http://www.w3.org/1999/xlink">
    <!-- Generator: Sketch 41.2 (35397) - http://www.bohemiancoding.com/sketch -->
    <title>Group 8 Copy</title>
    <desc>Created with Sketch.</desc>
    <defs></defs>
    <g id="Landing-Pages" stroke="none" stroke-width="1" fill="none" fill-rule="evenodd">
        <g id="Brand-Mobile" transform="translate(-23.000000, -11.000000)">
            <g id="Group-8-Copy" transform="translate(23.000000, 11.000000)">
                <circle id="Oval-2" fill="#A81D32" cx="12.5" cy="12.5" r="12.5"></circle>
                <path d="M19.1439609,7.21309814 L17.8733049,6.07018018 C17.5227487,5.75438438 16.9536466,5.75438438 16.6026489,6.07018018 L14.6966649,8.35601609 C14.405712,8.7426967 14.3461086,9.18313825 14.6966649,9.49893405 L15.4745995,10.1986228 C14.8979919,10.895524 14.2057095,11.6553455 13.4264504,12.3562289 C12.5452032,13.1487052 11.5650585,13.8691019 10.6838114,14.4608705 L9.93192561,13.7850755 C9.58136937,13.4692797 9.09173854,13.5226424 8.66126961,13.7850755 L6.11995759,15.4994524 C5.69390372,15.7642749 5.76895984,16.3265746 6.11995759,16.6423704 L7.3906136,17.7848901 C8.0926091,18.4164817 9.00520325,18.2141812 9.93192561,17.7848901 C9.93192561,17.7848901 12.7368171,16.3687869 15.1381715,14.2087914 C17.3969193,12.1770258 19.1439609,9.49893405 19.1439609,9.49893405 C19.5082038,8.59774125 19.8459564,7.8442915 19.1439609,7.21309814" id="Fill-178" fill="#FFFFFF"></path>
            </g>
        </g>
    </g>
</svg>