<svg height="157" viewBox="0 0 300 157" width="300" xmlns="http://www.w3.org/2000/svg"><g fill="none" fill-rule="evenodd"><path d="m0 0h300v157h-300z" fill="#d9e1e7"/><g fill="#000"><path d="m160 28h80v4h-80z" opacity=".2"/><path d="m160 38h70v4h-70z" opacity=".2"/><path d="m120 118h60v4h-60z" opacity=".2"/><path d="m120 128h50v4h-50z" opacity=".2"/><path d="m120 98h60v4h-60z" opacity=".2"/><path d="m120 108h50v4h-50z" opacity=".2"/><path d="m160 48h80v4h-80z" opacity=".2"/><path d="m160 58h70v4h-70z" opacity=".2"/><path d="m160 68h40v4h-40z" opacity=".2"/><path d="m60 58h20v20h-20z" opacity=".2"/><path d="m90 38h20v40h-20z" opacity=".2"/><path d="m120 18h20v60h-20z" opacity=".2"/><path d="m220 98v20l14.142136-14.142136c3.619288 3.619289 5.857864 8.619289 5.857864 14.142136 0 11.045695-8.954305 20-20 20s-20-8.954305-20-20 8.954305-20 20-20z" opacity=".2" transform="matrix(-1 0 0 1 440 0)"/><path d="m60 98h40v30h-10l-10 10v-10h-20z" opacity=".2"/></g></g></svg>