<svg id="Layer_1" data-name="Layer 1" xmlns="http://www.w3.org/2000/svg" viewBox="0 0 493.68 97.49"><defs><style>.cls-1{fill:#fff;}</style></defs><title>UWA-Online-Primary-reversed</title><path class="cls-1" d="M270.11,35.63c11.51,0,18.33,8.45,18.33,24.12s-6.83,24.12-18.33,24.12-18.33-8.45-18.33-24.12S258.6,35.63,270.11,35.63Zm0,43.81c8.26,0,13.13-6.37,13.13-19.7s-4.87-19.7-13.13-19.7S257,46.42,257,59.75,261.85,79.44,270.11,79.44Z" transform="translate(-18.75 -9.61)"/><path class="cls-1" d="M305.34,83.21V36.28h7.47l20.48,36.14h0.26V36.28h4.68V83.21h-4.29L310.15,41.35H310V83.21h-4.68Z" transform="translate(-18.75 -9.61)"/><path class="cls-1" d="M358.76,83.21V36.28H364V78.79H386.2v4.42H358.76Z" transform="translate(-18.75 -9.61)"/><path class="cls-1" d="M407.78,36.28V83.21h-5.2V36.28h5.2Z" transform="translate(-18.75 -9.61)"/><path class="cls-1" d="M429.55,83.21V36.28H437L457.5,72.42h0.26V36.28h4.68V83.21h-4.29L434.36,41.35h-0.13V83.21h-4.68Z" transform="translate(-18.75 -9.61)"/><path class="cls-1" d="M511.12,36.28V40.7H488.18V56.43h16.32v4.42H488.18V78.79h24.25v4.42H483V36.28h28.14Z" transform="translate(-18.75 -9.61)"/><rect class="cls-1" x="171.42" y="57.47" width="97.49" height="1.76" transform="translate(259.77 -171.42) rotate(90)"/><path class="cls-1" d="M79.12,86.66L79.28,61.1,71.15,42.46,71.4,78.71c-3.76,6.08-13.79,9.16-21.31,9.16-7.71,0-18.32-4.82-18.32-20.06l0.29-35.88c0-3,1-5.79,4.63-5.79V24.41c-2.8,0-5.69.39-9,.39-3,0-5.88-.39-9-0.39v1.74c3.66,0,5,2.8,5,5.79L24.05,68.2c0,15.62,9.84,24.69,24.11,24.69,9.06,0,16.39-4.63,23-9.16v4.73a3.57,3.57,0,0,1-1,2.6v0.68c2.41,0,4.82-.39,7.23-0.39s4.82,0.39,7.23.39V90C81.43,90,79.12,88.26,79.12,86.66Z" transform="translate(-18.75 -9.61)"/><path class="cls-1" d="M159.77,25.57V23.84c-2.7,0-5.4.39-8.1,0.39s-5.4-.39-8.1-0.39v1.74c3.57,0.68,4.15,1.83,4.15,3.86a14.66,14.66,0,0,1-1.45,6.27L126.5,79.58,117.24,58l11.57-23.92c2-4.05,5-8.2,8.39-8.49V23.84c-2.51,0-5,.39-7.52.39s-5-.39-7.52-0.39v1.74c3,0.77,3.38,1.74,3.38,3.86a8.27,8.27,0,0,1-.87,3.57l-9.45,20-8.58-21.7a12.42,12.42,0,0,1-.87-3.47c0.1-1.16,1.16-2,3.67-2.22V23.84c-3,0-6,.39-8.87.39s-6-.39-9-0.39v1.74c3.76,0.58,4.63,2,5.59,4.05l13.69,31.92-9.26,18.71-20.25-48c-1.16-2.8-1.25-3.66-1.25-4.34,0-1.35,1.45-2,3.28-2.31V23.84c-2.7,0-5.59.39-8.49,0.39s-5.79-.39-8.68-0.39v1.74c2.22,1,3.57,1.83,5.88,7.23L98,92.31H100l13-26.23,10.22,26.23h1.93L142.7,53.15C150.32,36.18,155,27.11,159.77,25.57Z" transform="translate(-18.75 -9.61)"/><path class="cls-1" d="M187.19,82.57l-20.72-58h-1.62l-23.1,58c-1.72,4.2-2.39,6.49-7.16,8V92.3c3,0,5.44-.38,7.92-0.38s4.87,0.38,7.25.38V90.59c-2.39-.86-4.1-2.1-4.1-3.82a16.13,16.13,0,0,1,.67-5.16l3.05-8.4h26.73l3.72,10a11.82,11.82,0,0,1,1.05,4.1c0,1.15-2.1,2.39-3.34,3.25V92.3c2.86,0,5.73-.38,8.59-0.38s5.73,0.38,8.59.38V90.59C190.15,88.87,188.82,87.15,187.19,82.57ZM150.91,69.3l12.7-31.12L174.88,69.3h-24Z" transform="translate(-18.75 -9.61)"/></svg>